<?xml version="1.0" encoding="utf-8"?>
<!-- Generator: Adobe Illustrator 25.0.0, SVG Export Plug-In . SVG Version: 6.00 Build 0)  -->
<svg version="1.1" id="katman_1" xmlns="http://www.w3.org/2000/svg" xmlns:xlink="http://www.w3.org/1999/xlink" x="0px" y="0px"
	 viewBox="0 0 4057.3 2761" style="enable-background:new 0 0 4057.3 2761;" xml:space="preserve">
<style type="text/css">
	.st0{fill:#3DDC84;}
</style>
<path d="M1057.5,2097.7c-59.1,0-98.9,46.4-98.9,106.1s39.8,106.1,98.9,106.1c59.1,0,98.9-46.4,98.9-106.1
	C1155.8,2144.1,1116.1,2097.7,1057.5,2097.7 M1044.3,2031.9c47.5,0,87.3,24.3,106.1,50.8v-44.2h72.9v330.9h-56.3
	c-9.1,0-16.5-7.4-16.6-16.6v-27.6c-18.8,26.5-58,50.8-106.1,50.8c-90.6,0-159.6-77.3-159.6-171.8
	C884.6,2109.8,953.1,2031.9,1044.3,2031.9 M1306.1,2038.5h72.9v44.7c19.9-33.1,57.5-51.4,100.5-51.4c76.8,0,126.5,54.1,126.5,138.1
	v199.4h-55.8c-9.1,0-16.5-7.4-16.6-16.6v-170.7c0-52.5-26.5-84-69.1-84c-48.1,0-85.6,37.6-85.6,108.3v163h-55.8
	c-9.1,0-16.5-7.4-16.6-16.6L1306.1,2038.5z M1835.9,2097.7c-59.1,0-98.9,46.4-98.9,106.1c0,59.7,39.8,106.1,98.9,106.1
	c59.1,0,98.9-46.4,98.9-106.1C1934.8,2144.1,1895,2097.7,1835.9,2097.7 M1822.6,2031.9c47.5,0,87.3,24.3,106.1,50.8v-209.9h72.9
	v496.6h-55.8c-9.1,0-16.5-7.4-16.6-16.6v-27.6c-18.8,26.5-58,50.8-106.1,50.8c-90.6,0-159.6-77.3-159.6-171.8
	C1663.5,2109.8,1732,2031.9,1822.6,2031.9 M2084.5,2038.5h72.9v59.1c13.1-37.1,48-62,87.3-62.4c9.5-0.2,18.9,0.8,28.2,2.8v74.6
	c-11.8-3.9-24.1-6-36.5-6.1c-41.4,0-79.5,35.4-79.5,101.1v161.3H2101c-9.1,0-16.5-7.4-16.6-16.6V2038.5z M2468.9,2308.1
	c58,0,99.4-45.9,99.4-104.4c0-59.1-40.9-104.4-99.4-104.4c-59.1,0-100,45.9-100,104.4C2369.5,2262.8,2409.8,2308.1,2468.9,2308.1
	 M2468.9,2376.1c-95-0.8-171.5-78.4-170.7-173.5s78.4-171.5,173.5-170.7c94.6,0.8,170.9,77.7,170.7,172.4
	c0.5,94.4-75.7,171.3-170.1,171.8C2471.2,2376.1,2470.1,2376.1,2468.9,2376.1 M2701.5,2038.5h72.9v330.9h-55.8
	c-9.1,0-16.5-7.4-16.6-16.6L2701.5,2038.5z M2738,1966.2c-27-0.3-48.9-22.1-49.2-49.2c0.5-26.7,22.4-48.1,49.2-48.1
	c26.8,0,48.6,21.8,48.6,48.6C2786.6,1944.4,2764.8,1966.2,2738,1966.2 M3007,2097.7c-59.1,0-98.9,46.4-98.9,106.1
	s39.8,106.1,98.9,106.1c59.1,0,98.9-46.4,98.9-106.1C3104.8,2144.1,3066.1,2097.7,3007,2097.7 M2993.7,2031.9
	c47.5,0,87.3,24.3,106.1,50.8v-209.9h72.9v496.6h-55.8c-9.1,0-16.5-7.4-16.6-16.6v-27.6c-18.8,26.5-58,50.8-106.1,50.8
	c-90.6,0-159.6-77.3-159.6-171.8C2834.6,2109.8,2903.1,2031.9,2993.7,2031.9"/>
<path class="st0" d="M2589.4,762.5L2780,432.7c10.7-19.1,4-43.2-15.1-53.9c-18.7-10.5-42.4-4.2-53.4,14.2l-192.8,333.7
	c-311.3-139.9-667.6-139.9-978.9,0L1347,392.9c-11.2-18.8-35.6-24.9-54.3-13.7c-18.4,11-24.7,34.7-14.2,53.4l190.6,329.8
	c-328.7,177.9-551.9,508.8-584.5,899.3h2287C3139,1271.2,2915.3,940.3,2589.4,762.5L2589.4,762.5z M1502.2,1335.9
	c-52.5,0-95-42.5-95-95s42.5-95,95-95c52.5,0,95,42.5,95,95c0,0,0,0,0,0C1597.2,1293.3,1554.7,1335.9,1502.2,1335.9z M2555.1,1335.9
	c-52.5,0-95-42.5-95-95s42.5-95,95-95c52.5,0,95,42.5,95,95S2607.6,1335.9,2555.1,1335.9L2555.1,1335.9z"/>
</svg>
